<mxfile host="drawio-plugin" modified="2021-10-17T16:49:42.069Z" agent="5.0 (X11; Linux x86_64) AppleWebKit/537.36 (KHTML, like Gecko) Chrome/89.0.4389.114 Safari/537.36" etag="GKDrkDBSVFzAVTRnoYDM" version="14.7.4" type="embed"><diagram id="R2lEEEUBdFMjLlhIrx00" name="Page-1"><mxGraphModel dx="1370" dy="1727" grid="1" gridSize="10" guides="1" tooltips="1" connect="1" arrows="1" fold="1" page="1" pageScale="1" pageWidth="850" pageHeight="1100" background="none" math="0" shadow="0" extFonts="Permanent Marker^https://fonts.googleapis.com/css?family=Permanent+Marker"><root><mxCell id="0"/><mxCell id="1" parent="0"/><mxCell id="C-vyLk0tnHw3VtMMgP7b-2" value="Orders" style="shape=table;startSize=30;container=1;collapsible=1;childLayout=tableLayout;fixedRows=1;rowLines=0;fontStyle=1;align=center;resizeLast=1;" parent="1" vertex="1"><mxGeometry x="325" y="-850" width="195" height="240" as="geometry"/></mxCell><mxCell id="C-vyLk0tnHw3VtMMgP7b-3" value="" style="shape=partialRectangle;collapsible=0;dropTarget=0;pointerEvents=0;fillColor=none;points=[[0,0.5],[1,0.5]];portConstraint=eastwest;top=0;left=0;right=0;bottom=1;" parent="C-vyLk0tnHw3VtMMgP7b-2" vertex="1"><mxGeometry y="30" width="195" height="30" as="geometry"/></mxCell><mxCell id="C-vyLk0tnHw3VtMMgP7b-4" value="PK" style="shape=partialRectangle;overflow=hidden;connectable=0;fillColor=none;top=0;left=0;bottom=0;right=0;fontStyle=1;" parent="C-vyLk0tnHw3VtMMgP7b-3" vertex="1"><mxGeometry width="30" height="30" as="geometry"><mxRectangle width="30" height="30" as="alternateBounds"/></mxGeometry></mxCell><mxCell id="C-vyLk0tnHw3VtMMgP7b-5" value="order_id int NOT NULL " style="shape=partialRectangle;overflow=hidden;connectable=0;fillColor=none;top=0;left=0;bottom=0;right=0;align=left;spacingLeft=6;fontStyle=5;" parent="C-vyLk0tnHw3VtMMgP7b-3" vertex="1"><mxGeometry x="30" width="165" height="30" as="geometry"><mxRectangle width="165" height="30" as="alternateBounds"/></mxGeometry></mxCell><mxCell id="C-vyLk0tnHw3VtMMgP7b-6" value="" style="shape=partialRectangle;collapsible=0;dropTarget=0;pointerEvents=0;fillColor=none;points=[[0,0.5],[1,0.5]];portConstraint=eastwest;top=0;left=0;right=0;bottom=0;" parent="C-vyLk0tnHw3VtMMgP7b-2" vertex="1"><mxGeometry y="60" width="195" height="30" as="geometry"/></mxCell><mxCell id="C-vyLk0tnHw3VtMMgP7b-7" value="FK" style="shape=partialRectangle;overflow=hidden;connectable=0;fillColor=none;top=0;left=0;bottom=0;right=0;" parent="C-vyLk0tnHw3VtMMgP7b-6" vertex="1"><mxGeometry width="30" height="30" as="geometry"><mxRectangle width="30" height="30" as="alternateBounds"/></mxGeometry></mxCell><mxCell id="C-vyLk0tnHw3VtMMgP7b-8" value="customer_id int NOT NULL" style="shape=partialRectangle;overflow=hidden;connectable=0;fillColor=none;top=0;left=0;bottom=0;right=0;align=left;spacingLeft=6;" parent="C-vyLk0tnHw3VtMMgP7b-6" vertex="1"><mxGeometry x="30" width="165" height="30" as="geometry"><mxRectangle width="165" height="30" as="alternateBounds"/></mxGeometry></mxCell><mxCell id="u9Eh5dhA7W8m4JbEo9Z5-86" value="" style="shape=partialRectangle;collapsible=0;dropTarget=0;pointerEvents=0;fillColor=none;points=[[0,0.5],[1,0.5]];portConstraint=eastwest;top=0;left=0;right=0;bottom=0;" parent="C-vyLk0tnHw3VtMMgP7b-2" vertex="1"><mxGeometry y="90" width="195" height="30" as="geometry"/></mxCell><mxCell id="u9Eh5dhA7W8m4JbEo9Z5-87" value="FK" style="shape=partialRectangle;overflow=hidden;connectable=0;fillColor=none;top=0;left=0;bottom=0;right=0;" parent="u9Eh5dhA7W8m4JbEo9Z5-86" vertex="1"><mxGeometry width="30" height="30" as="geometry"><mxRectangle width="30" height="30" as="alternateBounds"/></mxGeometry></mxCell><mxCell id="u9Eh5dhA7W8m4JbEo9Z5-88" value="car_id int NOT NULL" style="shape=partialRectangle;overflow=hidden;connectable=0;fillColor=none;top=0;left=0;bottom=0;right=0;align=left;spacingLeft=6;" parent="u9Eh5dhA7W8m4JbEo9Z5-86" vertex="1"><mxGeometry x="30" width="165" height="30" as="geometry"><mxRectangle width="165" height="30" as="alternateBounds"/></mxGeometry></mxCell><mxCell id="u9Eh5dhA7W8m4JbEo9Z5-31" value="" style="shape=partialRectangle;collapsible=0;dropTarget=0;pointerEvents=0;fillColor=none;points=[[0,0.5],[1,0.5]];portConstraint=eastwest;top=0;left=0;right=0;bottom=0;" parent="C-vyLk0tnHw3VtMMgP7b-2" vertex="1"><mxGeometry y="120" width="195" height="30" as="geometry"/></mxCell><mxCell id="u9Eh5dhA7W8m4JbEo9Z5-32" value="" style="shape=partialRectangle;overflow=hidden;connectable=0;fillColor=none;top=0;left=0;bottom=0;right=0;" parent="u9Eh5dhA7W8m4JbEo9Z5-31" vertex="1"><mxGeometry width="30" height="30" as="geometry"><mxRectangle width="30" height="30" as="alternateBounds"/></mxGeometry></mxCell><mxCell id="u9Eh5dhA7W8m4JbEo9Z5-33" value="price int NOT NULL" style="shape=partialRectangle;overflow=hidden;connectable=0;fillColor=none;top=0;left=0;bottom=0;right=0;align=left;spacingLeft=6;" parent="u9Eh5dhA7W8m4JbEo9Z5-31" vertex="1"><mxGeometry x="30" width="165" height="30" as="geometry"><mxRectangle width="165" height="30" as="alternateBounds"/></mxGeometry></mxCell><mxCell id="u9Eh5dhA7W8m4JbEo9Z5-47" value="" style="shape=partialRectangle;collapsible=0;dropTarget=0;pointerEvents=0;fillColor=none;points=[[0,0.5],[1,0.5]];portConstraint=eastwest;top=0;left=0;right=0;bottom=0;" parent="C-vyLk0tnHw3VtMMgP7b-2" vertex="1"><mxGeometry y="150" width="195" height="30" as="geometry"/></mxCell><mxCell id="u9Eh5dhA7W8m4JbEo9Z5-48" value="FK" style="shape=partialRectangle;overflow=hidden;connectable=0;fillColor=none;top=0;left=0;bottom=0;right=0;" parent="u9Eh5dhA7W8m4JbEo9Z5-47" vertex="1"><mxGeometry width="30" height="30" as="geometry"><mxRectangle width="30" height="30" as="alternateBounds"/></mxGeometry></mxCell><mxCell id="u9Eh5dhA7W8m4JbEo9Z5-49" value="branch int NOT NULL" style="shape=partialRectangle;overflow=hidden;connectable=0;fillColor=none;top=0;left=0;bottom=0;right=0;align=left;spacingLeft=6;" parent="u9Eh5dhA7W8m4JbEo9Z5-47" vertex="1"><mxGeometry x="30" width="165" height="30" as="geometry"><mxRectangle width="165" height="30" as="alternateBounds"/></mxGeometry></mxCell><mxCell id="C-vyLk0tnHw3VtMMgP7b-9" value="" style="shape=partialRectangle;collapsible=0;dropTarget=0;pointerEvents=0;fillColor=none;points=[[0,0.5],[1,0.5]];portConstraint=eastwest;top=0;left=0;right=0;bottom=0;" parent="C-vyLk0tnHw3VtMMgP7b-2" vertex="1"><mxGeometry y="180" width="195" height="30" as="geometry"/></mxCell><mxCell id="C-vyLk0tnHw3VtMMgP7b-10" value="" style="shape=partialRectangle;overflow=hidden;connectable=0;fillColor=none;top=0;left=0;bottom=0;right=0;" parent="C-vyLk0tnHw3VtMMgP7b-9" vertex="1"><mxGeometry width="30" height="30" as="geometry"><mxRectangle width="30" height="30" as="alternateBounds"/></mxGeometry></mxCell><mxCell id="C-vyLk0tnHw3VtMMgP7b-11" value="renting_date date NOT NULL" style="shape=partialRectangle;overflow=hidden;connectable=0;fillColor=none;top=0;left=0;bottom=0;right=0;align=left;spacingLeft=6;" parent="C-vyLk0tnHw3VtMMgP7b-9" vertex="1"><mxGeometry x="30" width="165" height="30" as="geometry"><mxRectangle width="165" height="30" as="alternateBounds"/></mxGeometry></mxCell><mxCell id="u9Eh5dhA7W8m4JbEo9Z5-50" value="" style="shape=partialRectangle;collapsible=0;dropTarget=0;pointerEvents=0;fillColor=none;points=[[0,0.5],[1,0.5]];portConstraint=eastwest;top=0;left=0;right=0;bottom=0;" parent="C-vyLk0tnHw3VtMMgP7b-2" vertex="1"><mxGeometry y="210" width="195" height="30" as="geometry"/></mxCell><mxCell id="u9Eh5dhA7W8m4JbEo9Z5-51" value="" style="shape=partialRectangle;overflow=hidden;connectable=0;fillColor=none;top=0;left=0;bottom=0;right=0;" parent="u9Eh5dhA7W8m4JbEo9Z5-50" vertex="1"><mxGeometry width="30" height="30" as="geometry"><mxRectangle width="30" height="30" as="alternateBounds"/></mxGeometry></mxCell><mxCell id="u9Eh5dhA7W8m4JbEo9Z5-52" value="renting_period int NOT NULL" style="shape=partialRectangle;overflow=hidden;connectable=0;fillColor=none;top=0;left=0;bottom=0;right=0;align=left;spacingLeft=6;" parent="u9Eh5dhA7W8m4JbEo9Z5-50" vertex="1"><mxGeometry x="30" width="165" height="30" as="geometry"><mxRectangle width="165" height="30" as="alternateBounds"/></mxGeometry></mxCell><mxCell id="C-vyLk0tnHw3VtMMgP7b-13" value="Cars" style="shape=table;startSize=30;container=1;collapsible=1;childLayout=tableLayout;fixedRows=1;rowLines=0;fontStyle=1;align=center;resizeLast=1;" parent="1" vertex="1"><mxGeometry x="580" y="-1080" width="165" height="120" as="geometry"/></mxCell><mxCell id="C-vyLk0tnHw3VtMMgP7b-14" value="" style="shape=partialRectangle;collapsible=0;dropTarget=0;pointerEvents=0;fillColor=none;points=[[0,0.5],[1,0.5]];portConstraint=eastwest;top=0;left=0;right=0;bottom=1;" parent="C-vyLk0tnHw3VtMMgP7b-13" vertex="1"><mxGeometry y="30" width="165" height="30" as="geometry"/></mxCell><mxCell id="C-vyLk0tnHw3VtMMgP7b-15" value="PK" style="shape=partialRectangle;overflow=hidden;connectable=0;fillColor=none;top=0;left=0;bottom=0;right=0;fontStyle=1;" parent="C-vyLk0tnHw3VtMMgP7b-14" vertex="1"><mxGeometry width="30" height="30" as="geometry"><mxRectangle width="30" height="30" as="alternateBounds"/></mxGeometry></mxCell><mxCell id="C-vyLk0tnHw3VtMMgP7b-16" value="car_id int NOT NULL " style="shape=partialRectangle;overflow=hidden;connectable=0;fillColor=none;top=0;left=0;bottom=0;right=0;align=left;spacingLeft=6;fontStyle=5;" parent="C-vyLk0tnHw3VtMMgP7b-14" vertex="1"><mxGeometry x="30" width="135" height="30" as="geometry"><mxRectangle width="135" height="30" as="alternateBounds"/></mxGeometry></mxCell><mxCell id="C-vyLk0tnHw3VtMMgP7b-20" value="" style="shape=partialRectangle;collapsible=0;dropTarget=0;pointerEvents=0;fillColor=none;points=[[0,0.5],[1,0.5]];portConstraint=eastwest;top=0;left=0;right=0;bottom=0;" parent="C-vyLk0tnHw3VtMMgP7b-13" vertex="1"><mxGeometry y="60" width="165" height="30" as="geometry"/></mxCell><mxCell id="C-vyLk0tnHw3VtMMgP7b-21" value="FK" style="shape=partialRectangle;overflow=hidden;connectable=0;fillColor=none;top=0;left=0;bottom=0;right=0;" parent="C-vyLk0tnHw3VtMMgP7b-20" vertex="1"><mxGeometry width="30" height="30" as="geometry"><mxRectangle width="30" height="30" as="alternateBounds"/></mxGeometry></mxCell><mxCell id="C-vyLk0tnHw3VtMMgP7b-22" value="model_id int NOT NULL" style="shape=partialRectangle;overflow=hidden;connectable=0;fillColor=none;top=0;left=0;bottom=0;right=0;align=left;spacingLeft=6;" parent="C-vyLk0tnHw3VtMMgP7b-20" vertex="1"><mxGeometry x="30" width="135" height="30" as="geometry"><mxRectangle width="135" height="30" as="alternateBounds"/></mxGeometry></mxCell><mxCell id="u9Eh5dhA7W8m4JbEo9Z5-99" value="" style="shape=partialRectangle;collapsible=0;dropTarget=0;pointerEvents=0;fillColor=none;points=[[0,0.5],[1,0.5]];portConstraint=eastwest;top=0;left=0;right=0;bottom=0;" parent="C-vyLk0tnHw3VtMMgP7b-13" vertex="1"><mxGeometry y="90" width="165" height="30" as="geometry"/></mxCell><mxCell id="u9Eh5dhA7W8m4JbEo9Z5-100" value="FK" style="shape=partialRectangle;overflow=hidden;connectable=0;fillColor=none;top=0;left=0;bottom=0;right=0;" parent="u9Eh5dhA7W8m4JbEo9Z5-99" vertex="1"><mxGeometry width="30" height="30" as="geometry"><mxRectangle width="30" height="30" as="alternateBounds"/></mxGeometry></mxCell><mxCell id="u9Eh5dhA7W8m4JbEo9Z5-101" value="color_id int NOT NULL" style="shape=partialRectangle;overflow=hidden;connectable=0;fillColor=none;top=0;left=0;bottom=0;right=0;align=left;spacingLeft=6;" parent="u9Eh5dhA7W8m4JbEo9Z5-99" vertex="1"><mxGeometry x="30" width="135" height="30" as="geometry"><mxRectangle width="135" height="30" as="alternateBounds"/></mxGeometry></mxCell><mxCell id="C-vyLk0tnHw3VtMMgP7b-23" value="Customers" style="shape=table;startSize=30;container=1;collapsible=1;childLayout=tableLayout;fixedRows=1;rowLines=0;fontStyle=1;align=center;resizeLast=1;" parent="1" vertex="1"><mxGeometry x="30" y="-850" width="195" height="150" as="geometry"/></mxCell><mxCell id="C-vyLk0tnHw3VtMMgP7b-24" value="" style="shape=partialRectangle;collapsible=0;dropTarget=0;pointerEvents=0;fillColor=none;points=[[0,0.5],[1,0.5]];portConstraint=eastwest;top=0;left=0;right=0;bottom=1;" parent="C-vyLk0tnHw3VtMMgP7b-23" vertex="1"><mxGeometry y="30" width="195" height="30" as="geometry"/></mxCell><mxCell id="C-vyLk0tnHw3VtMMgP7b-25" value="PK" style="shape=partialRectangle;overflow=hidden;connectable=0;fillColor=none;top=0;left=0;bottom=0;right=0;fontStyle=1;" parent="C-vyLk0tnHw3VtMMgP7b-24" vertex="1"><mxGeometry width="30" height="30" as="geometry"><mxRectangle width="30" height="30" as="alternateBounds"/></mxGeometry></mxCell><mxCell id="C-vyLk0tnHw3VtMMgP7b-26" value="customer_id int NOT NULL " style="shape=partialRectangle;overflow=hidden;connectable=0;fillColor=none;top=0;left=0;bottom=0;right=0;align=left;spacingLeft=6;fontStyle=5;" parent="C-vyLk0tnHw3VtMMgP7b-24" vertex="1"><mxGeometry x="30" width="165" height="30" as="geometry"><mxRectangle width="165" height="30" as="alternateBounds"/></mxGeometry></mxCell><mxCell id="C-vyLk0tnHw3VtMMgP7b-27" value="" style="shape=partialRectangle;collapsible=0;dropTarget=0;pointerEvents=0;fillColor=none;points=[[0,0.5],[1,0.5]];portConstraint=eastwest;top=0;left=0;right=0;bottom=0;" parent="C-vyLk0tnHw3VtMMgP7b-23" vertex="1"><mxGeometry y="60" width="195" height="30" as="geometry"/></mxCell><mxCell id="C-vyLk0tnHw3VtMMgP7b-28" value="" style="shape=partialRectangle;overflow=hidden;connectable=0;fillColor=none;top=0;left=0;bottom=0;right=0;" parent="C-vyLk0tnHw3VtMMgP7b-27" vertex="1"><mxGeometry width="30" height="30" as="geometry"><mxRectangle width="30" height="30" as="alternateBounds"/></mxGeometry></mxCell><mxCell id="C-vyLk0tnHw3VtMMgP7b-29" value="name char(50) NOT NULL" style="shape=partialRectangle;overflow=hidden;connectable=0;fillColor=none;top=0;left=0;bottom=0;right=0;align=left;spacingLeft=6;" parent="C-vyLk0tnHw3VtMMgP7b-27" vertex="1"><mxGeometry x="30" width="165" height="30" as="geometry"><mxRectangle width="165" height="30" as="alternateBounds"/></mxGeometry></mxCell><mxCell id="u9Eh5dhA7W8m4JbEo9Z5-2" value="" style="shape=partialRectangle;collapsible=0;dropTarget=0;pointerEvents=0;fillColor=none;points=[[0,0.5],[1,0.5]];portConstraint=eastwest;top=0;left=0;right=0;bottom=0;" parent="C-vyLk0tnHw3VtMMgP7b-23" vertex="1"><mxGeometry y="90" width="195" height="30" as="geometry"/></mxCell><mxCell id="u9Eh5dhA7W8m4JbEo9Z5-3" value="" style="shape=partialRectangle;overflow=hidden;connectable=0;fillColor=none;top=0;left=0;bottom=0;right=0;" parent="u9Eh5dhA7W8m4JbEo9Z5-2" vertex="1"><mxGeometry width="30" height="30" as="geometry"><mxRectangle width="30" height="30" as="alternateBounds"/></mxGeometry></mxCell><mxCell id="u9Eh5dhA7W8m4JbEo9Z5-4" value="phone int(12)  NOT NULL" style="shape=partialRectangle;overflow=hidden;connectable=0;fillColor=none;top=0;left=0;bottom=0;right=0;align=left;spacingLeft=6;" parent="u9Eh5dhA7W8m4JbEo9Z5-2" vertex="1"><mxGeometry x="30" width="165" height="30" as="geometry"><mxRectangle width="165" height="30" as="alternateBounds"/></mxGeometry></mxCell><mxCell id="u9Eh5dhA7W8m4JbEo9Z5-5" value="" style="shape=partialRectangle;collapsible=0;dropTarget=0;pointerEvents=0;fillColor=none;points=[[0,0.5],[1,0.5]];portConstraint=eastwest;top=0;left=0;right=0;bottom=0;" parent="C-vyLk0tnHw3VtMMgP7b-23" vertex="1"><mxGeometry y="120" width="195" height="30" as="geometry"/></mxCell><mxCell id="u9Eh5dhA7W8m4JbEo9Z5-6" value="FK" style="shape=partialRectangle;overflow=hidden;connectable=0;fillColor=none;top=0;left=0;bottom=0;right=0;" parent="u9Eh5dhA7W8m4JbEo9Z5-5" vertex="1"><mxGeometry width="30" height="30" as="geometry"><mxRectangle width="30" height="30" as="alternateBounds"/></mxGeometry></mxCell><mxCell id="u9Eh5dhA7W8m4JbEo9Z5-7" value="adress_id int NOT NULL" style="shape=partialRectangle;overflow=hidden;connectable=0;fillColor=none;top=0;left=0;bottom=0;right=0;align=left;spacingLeft=6;" parent="u9Eh5dhA7W8m4JbEo9Z5-5" vertex="1"><mxGeometry x="30" width="165" height="30" as="geometry"><mxRectangle width="165" height="30" as="alternateBounds"/></mxGeometry></mxCell><mxCell id="u9Eh5dhA7W8m4JbEo9Z5-14" value="Branches" style="shape=table;startSize=30;container=1;collapsible=1;childLayout=tableLayout;fixedRows=1;rowLines=0;fontStyle=1;align=center;resizeLast=1;" parent="1" vertex="1"><mxGeometry x="575" y="-730" width="185" height="180" as="geometry"/></mxCell><mxCell id="u9Eh5dhA7W8m4JbEo9Z5-15" value="" style="shape=partialRectangle;collapsible=0;dropTarget=0;pointerEvents=0;fillColor=none;points=[[0,0.5],[1,0.5]];portConstraint=eastwest;top=0;left=0;right=0;bottom=1;" parent="u9Eh5dhA7W8m4JbEo9Z5-14" vertex="1"><mxGeometry y="30" width="185" height="30" as="geometry"/></mxCell><mxCell id="u9Eh5dhA7W8m4JbEo9Z5-16" value="PK" style="shape=partialRectangle;overflow=hidden;connectable=0;fillColor=none;top=0;left=0;bottom=0;right=0;fontStyle=1;" parent="u9Eh5dhA7W8m4JbEo9Z5-15" vertex="1"><mxGeometry width="30" height="30" as="geometry"><mxRectangle width="30" height="30" as="alternateBounds"/></mxGeometry></mxCell><mxCell id="u9Eh5dhA7W8m4JbEo9Z5-17" value="branch_id int NOT NULL " style="shape=partialRectangle;overflow=hidden;connectable=0;fillColor=none;top=0;left=0;bottom=0;right=0;align=left;spacingLeft=6;fontStyle=5;" parent="u9Eh5dhA7W8m4JbEo9Z5-15" vertex="1"><mxGeometry x="30" width="155" height="30" as="geometry"><mxRectangle width="155" height="30" as="alternateBounds"/></mxGeometry></mxCell><mxCell id="u9Eh5dhA7W8m4JbEo9Z5-18" value="" style="shape=partialRectangle;collapsible=0;dropTarget=0;pointerEvents=0;fillColor=none;points=[[0,0.5],[1,0.5]];portConstraint=eastwest;top=0;left=0;right=0;bottom=0;" parent="u9Eh5dhA7W8m4JbEo9Z5-14" vertex="1"><mxGeometry y="60" width="185" height="30" as="geometry"/></mxCell><mxCell id="u9Eh5dhA7W8m4JbEo9Z5-19" value="" style="shape=partialRectangle;overflow=hidden;connectable=0;fillColor=none;top=0;left=0;bottom=0;right=0;" parent="u9Eh5dhA7W8m4JbEo9Z5-18" vertex="1"><mxGeometry width="30" height="30" as="geometry"><mxRectangle width="30" height="30" as="alternateBounds"/></mxGeometry></mxCell><mxCell id="u9Eh5dhA7W8m4JbEo9Z5-20" value="name char NOT NULL" style="shape=partialRectangle;overflow=hidden;connectable=0;fillColor=none;top=0;left=0;bottom=0;right=0;align=left;spacingLeft=6;" parent="u9Eh5dhA7W8m4JbEo9Z5-18" vertex="1"><mxGeometry x="30" width="155" height="30" as="geometry"><mxRectangle width="155" height="30" as="alternateBounds"/></mxGeometry></mxCell><mxCell id="u9Eh5dhA7W8m4JbEo9Z5-21" value="" style="shape=partialRectangle;collapsible=0;dropTarget=0;pointerEvents=0;fillColor=none;points=[[0,0.5],[1,0.5]];portConstraint=eastwest;top=0;left=0;right=0;bottom=0;" parent="u9Eh5dhA7W8m4JbEo9Z5-14" vertex="1"><mxGeometry y="90" width="185" height="30" as="geometry"/></mxCell><mxCell id="u9Eh5dhA7W8m4JbEo9Z5-22" value="" style="shape=partialRectangle;overflow=hidden;connectable=0;fillColor=none;top=0;left=0;bottom=0;right=0;" parent="u9Eh5dhA7W8m4JbEo9Z5-21" vertex="1"><mxGeometry width="30" height="30" as="geometry"><mxRectangle width="30" height="30" as="alternateBounds"/></mxGeometry></mxCell><mxCell id="u9Eh5dhA7W8m4JbEo9Z5-23" value="city char  NOT NULL" style="shape=partialRectangle;overflow=hidden;connectable=0;fillColor=none;top=0;left=0;bottom=0;right=0;align=left;spacingLeft=6;" parent="u9Eh5dhA7W8m4JbEo9Z5-21" vertex="1"><mxGeometry x="30" width="155" height="30" as="geometry"><mxRectangle width="155" height="30" as="alternateBounds"/></mxGeometry></mxCell><mxCell id="u9Eh5dhA7W8m4JbEo9Z5-62" value="" style="shape=partialRectangle;collapsible=0;dropTarget=0;pointerEvents=0;fillColor=none;points=[[0,0.5],[1,0.5]];portConstraint=eastwest;top=0;left=0;right=0;bottom=0;" parent="u9Eh5dhA7W8m4JbEo9Z5-14" vertex="1"><mxGeometry y="120" width="185" height="30" as="geometry"/></mxCell><mxCell id="u9Eh5dhA7W8m4JbEo9Z5-63" value="" style="shape=partialRectangle;overflow=hidden;connectable=0;fillColor=none;top=0;left=0;bottom=0;right=0;" parent="u9Eh5dhA7W8m4JbEo9Z5-62" vertex="1"><mxGeometry width="30" height="30" as="geometry"><mxRectangle width="30" height="30" as="alternateBounds"/></mxGeometry></mxCell><mxCell id="u9Eh5dhA7W8m4JbEo9Z5-64" value="street char NOT NULL" style="shape=partialRectangle;overflow=hidden;connectable=0;fillColor=none;top=0;left=0;bottom=0;right=0;align=left;spacingLeft=6;" parent="u9Eh5dhA7W8m4JbEo9Z5-62" vertex="1"><mxGeometry x="30" width="155" height="30" as="geometry"><mxRectangle width="155" height="30" as="alternateBounds"/></mxGeometry></mxCell><mxCell id="u9Eh5dhA7W8m4JbEo9Z5-65" value="" style="shape=partialRectangle;collapsible=0;dropTarget=0;pointerEvents=0;fillColor=none;points=[[0,0.5],[1,0.5]];portConstraint=eastwest;top=0;left=0;right=0;bottom=0;" parent="u9Eh5dhA7W8m4JbEo9Z5-14" vertex="1"><mxGeometry y="150" width="185" height="30" as="geometry"/></mxCell><mxCell id="u9Eh5dhA7W8m4JbEo9Z5-66" value="" style="shape=partialRectangle;overflow=hidden;connectable=0;fillColor=none;top=0;left=0;bottom=0;right=0;" parent="u9Eh5dhA7W8m4JbEo9Z5-65" vertex="1"><mxGeometry width="30" height="30" as="geometry"><mxRectangle width="30" height="30" as="alternateBounds"/></mxGeometry></mxCell><mxCell id="u9Eh5dhA7W8m4JbEo9Z5-67" value="building char NOT NULL" style="shape=partialRectangle;overflow=hidden;connectable=0;fillColor=none;top=0;left=0;bottom=0;right=0;align=left;spacingLeft=6;" parent="u9Eh5dhA7W8m4JbEo9Z5-65" vertex="1"><mxGeometry x="30" width="155" height="30" as="geometry"><mxRectangle width="155" height="30" as="alternateBounds"/></mxGeometry></mxCell><mxCell id="u9Eh5dhA7W8m4JbEo9Z5-69" value="CustomerAdresses" style="shape=table;startSize=30;container=1;collapsible=1;childLayout=tableLayout;fixedRows=1;rowLines=0;fontStyle=1;align=center;resizeLast=1;" parent="1" vertex="1"><mxGeometry x="35" y="-640" width="185" height="150" as="geometry"/></mxCell><mxCell id="u9Eh5dhA7W8m4JbEo9Z5-70" value="" style="shape=partialRectangle;collapsible=0;dropTarget=0;pointerEvents=0;fillColor=none;points=[[0,0.5],[1,0.5]];portConstraint=eastwest;top=0;left=0;right=0;bottom=1;" parent="u9Eh5dhA7W8m4JbEo9Z5-69" vertex="1"><mxGeometry y="30" width="185" height="30" as="geometry"/></mxCell><mxCell id="u9Eh5dhA7W8m4JbEo9Z5-71" value="PK" style="shape=partialRectangle;overflow=hidden;connectable=0;fillColor=none;top=0;left=0;bottom=0;right=0;fontStyle=1;" parent="u9Eh5dhA7W8m4JbEo9Z5-70" vertex="1"><mxGeometry width="30" height="30" as="geometry"><mxRectangle width="30" height="30" as="alternateBounds"/></mxGeometry></mxCell><mxCell id="u9Eh5dhA7W8m4JbEo9Z5-72" value="adress_id int NOT NULL " style="shape=partialRectangle;overflow=hidden;connectable=0;fillColor=none;top=0;left=0;bottom=0;right=0;align=left;spacingLeft=6;fontStyle=5;" parent="u9Eh5dhA7W8m4JbEo9Z5-70" vertex="1"><mxGeometry x="30" width="155" height="30" as="geometry"><mxRectangle width="155" height="30" as="alternateBounds"/></mxGeometry></mxCell><mxCell id="u9Eh5dhA7W8m4JbEo9Z5-76" value="" style="shape=partialRectangle;collapsible=0;dropTarget=0;pointerEvents=0;fillColor=none;points=[[0,0.5],[1,0.5]];portConstraint=eastwest;top=0;left=0;right=0;bottom=0;" parent="u9Eh5dhA7W8m4JbEo9Z5-69" vertex="1"><mxGeometry y="60" width="185" height="30" as="geometry"/></mxCell><mxCell id="u9Eh5dhA7W8m4JbEo9Z5-77" value="" style="shape=partialRectangle;overflow=hidden;connectable=0;fillColor=none;top=0;left=0;bottom=0;right=0;" parent="u9Eh5dhA7W8m4JbEo9Z5-76" vertex="1"><mxGeometry width="30" height="30" as="geometry"><mxRectangle width="30" height="30" as="alternateBounds"/></mxGeometry></mxCell><mxCell id="u9Eh5dhA7W8m4JbEo9Z5-78" value="city charNOT NULL" style="shape=partialRectangle;overflow=hidden;connectable=0;fillColor=none;top=0;left=0;bottom=0;right=0;align=left;spacingLeft=6;" parent="u9Eh5dhA7W8m4JbEo9Z5-76" vertex="1"><mxGeometry x="30" width="155" height="30" as="geometry"><mxRectangle width="155" height="30" as="alternateBounds"/></mxGeometry></mxCell><mxCell id="u9Eh5dhA7W8m4JbEo9Z5-79" value="" style="shape=partialRectangle;collapsible=0;dropTarget=0;pointerEvents=0;fillColor=none;points=[[0,0.5],[1,0.5]];portConstraint=eastwest;top=0;left=0;right=0;bottom=0;" parent="u9Eh5dhA7W8m4JbEo9Z5-69" vertex="1"><mxGeometry y="90" width="185" height="30" as="geometry"/></mxCell><mxCell id="u9Eh5dhA7W8m4JbEo9Z5-80" value="" style="shape=partialRectangle;overflow=hidden;connectable=0;fillColor=none;top=0;left=0;bottom=0;right=0;" parent="u9Eh5dhA7W8m4JbEo9Z5-79" vertex="1"><mxGeometry width="30" height="30" as="geometry"><mxRectangle width="30" height="30" as="alternateBounds"/></mxGeometry></mxCell><mxCell id="u9Eh5dhA7W8m4JbEo9Z5-81" value="street char NOT NULL" style="shape=partialRectangle;overflow=hidden;connectable=0;fillColor=none;top=0;left=0;bottom=0;right=0;align=left;spacingLeft=6;" parent="u9Eh5dhA7W8m4JbEo9Z5-79" vertex="1"><mxGeometry x="30" width="155" height="30" as="geometry"><mxRectangle width="155" height="30" as="alternateBounds"/></mxGeometry></mxCell><mxCell id="u9Eh5dhA7W8m4JbEo9Z5-82" value="" style="shape=partialRectangle;collapsible=0;dropTarget=0;pointerEvents=0;fillColor=none;points=[[0,0.5],[1,0.5]];portConstraint=eastwest;top=0;left=0;right=0;bottom=0;" parent="u9Eh5dhA7W8m4JbEo9Z5-69" vertex="1"><mxGeometry y="120" width="185" height="30" as="geometry"/></mxCell><mxCell id="u9Eh5dhA7W8m4JbEo9Z5-83" value="" style="shape=partialRectangle;overflow=hidden;connectable=0;fillColor=none;top=0;left=0;bottom=0;right=0;" parent="u9Eh5dhA7W8m4JbEo9Z5-82" vertex="1"><mxGeometry width="30" height="30" as="geometry"><mxRectangle width="30" height="30" as="alternateBounds"/></mxGeometry></mxCell><mxCell id="u9Eh5dhA7W8m4JbEo9Z5-84" value="house char NOT NULL" style="shape=partialRectangle;overflow=hidden;connectable=0;fillColor=none;top=0;left=0;bottom=0;right=0;align=left;spacingLeft=6;" parent="u9Eh5dhA7W8m4JbEo9Z5-82" vertex="1"><mxGeometry x="30" width="155" height="30" as="geometry"><mxRectangle width="155" height="30" as="alternateBounds"/></mxGeometry></mxCell><mxCell id="u9Eh5dhA7W8m4JbEo9Z5-102" value="Colors" style="shape=table;startSize=30;container=1;collapsible=1;childLayout=tableLayout;fixedRows=1;rowLines=0;fontStyle=1;align=center;resizeLast=1;" parent="1" vertex="1"><mxGeometry x="575" y="-940" width="175" height="120" as="geometry"/></mxCell><mxCell id="u9Eh5dhA7W8m4JbEo9Z5-103" value="" style="shape=partialRectangle;collapsible=0;dropTarget=0;pointerEvents=0;fillColor=none;points=[[0,0.5],[1,0.5]];portConstraint=eastwest;top=0;left=0;right=0;bottom=1;" parent="u9Eh5dhA7W8m4JbEo9Z5-102" vertex="1"><mxGeometry y="30" width="175" height="30" as="geometry"/></mxCell><mxCell id="u9Eh5dhA7W8m4JbEo9Z5-104" value="PK" style="shape=partialRectangle;overflow=hidden;connectable=0;fillColor=none;top=0;left=0;bottom=0;right=0;fontStyle=1;" parent="u9Eh5dhA7W8m4JbEo9Z5-103" vertex="1"><mxGeometry width="30" height="30" as="geometry"><mxRectangle width="30" height="30" as="alternateBounds"/></mxGeometry></mxCell><mxCell id="u9Eh5dhA7W8m4JbEo9Z5-105" value="color_id int NOT NULL " style="shape=partialRectangle;overflow=hidden;connectable=0;fillColor=none;top=0;left=0;bottom=0;right=0;align=left;spacingLeft=6;fontStyle=5;" parent="u9Eh5dhA7W8m4JbEo9Z5-103" vertex="1"><mxGeometry x="30" width="145" height="30" as="geometry"><mxRectangle width="145" height="30" as="alternateBounds"/></mxGeometry></mxCell><mxCell id="u9Eh5dhA7W8m4JbEo9Z5-106" value="" style="shape=partialRectangle;collapsible=0;dropTarget=0;pointerEvents=0;fillColor=none;points=[[0,0.5],[1,0.5]];portConstraint=eastwest;top=0;left=0;right=0;bottom=0;" parent="u9Eh5dhA7W8m4JbEo9Z5-102" vertex="1"><mxGeometry y="60" width="175" height="30" as="geometry"/></mxCell><mxCell id="u9Eh5dhA7W8m4JbEo9Z5-107" value="FK" style="shape=partialRectangle;overflow=hidden;connectable=0;fillColor=none;top=0;left=0;bottom=0;right=0;" parent="u9Eh5dhA7W8m4JbEo9Z5-106" vertex="1"><mxGeometry width="30" height="30" as="geometry"><mxRectangle width="30" height="30" as="alternateBounds"/></mxGeometry></mxCell><mxCell id="u9Eh5dhA7W8m4JbEo9Z5-108" value="value char(7) NOT NULL" style="shape=partialRectangle;overflow=hidden;connectable=0;fillColor=none;top=0;left=0;bottom=0;right=0;align=left;spacingLeft=6;" parent="u9Eh5dhA7W8m4JbEo9Z5-106" vertex="1"><mxGeometry x="30" width="145" height="30" as="geometry"><mxRectangle width="145" height="30" as="alternateBounds"/></mxGeometry></mxCell><mxCell id="u9Eh5dhA7W8m4JbEo9Z5-109" value="" style="shape=partialRectangle;collapsible=0;dropTarget=0;pointerEvents=0;fillColor=none;points=[[0,0.5],[1,0.5]];portConstraint=eastwest;top=0;left=0;right=0;bottom=0;" parent="u9Eh5dhA7W8m4JbEo9Z5-102" vertex="1"><mxGeometry y="90" width="175" height="30" as="geometry"/></mxCell><mxCell id="u9Eh5dhA7W8m4JbEo9Z5-110" value="" style="shape=partialRectangle;overflow=hidden;connectable=0;fillColor=none;top=0;left=0;bottom=0;right=0;" parent="u9Eh5dhA7W8m4JbEo9Z5-109" vertex="1"><mxGeometry width="30" height="30" as="geometry"><mxRectangle width="30" height="30" as="alternateBounds"/></mxGeometry></mxCell><mxCell id="u9Eh5dhA7W8m4JbEo9Z5-111" value="name char NOT NULL" style="shape=partialRectangle;overflow=hidden;connectable=0;fillColor=none;top=0;left=0;bottom=0;right=0;align=left;spacingLeft=6;" parent="u9Eh5dhA7W8m4JbEo9Z5-109" vertex="1"><mxGeometry x="30" width="145" height="30" as="geometry"><mxRectangle width="145" height="30" as="alternateBounds"/></mxGeometry></mxCell><mxCell id="u9Eh5dhA7W8m4JbEo9Z5-116" value="Models" style="shape=table;startSize=30;container=1;collapsible=1;childLayout=tableLayout;fixedRows=1;rowLines=0;fontStyle=1;align=center;resizeLast=1;" parent="1" vertex="1"><mxGeometry x="303" y="-1050" width="215" height="120" as="geometry"/></mxCell><mxCell id="u9Eh5dhA7W8m4JbEo9Z5-117" value="" style="shape=partialRectangle;collapsible=0;dropTarget=0;pointerEvents=0;fillColor=none;points=[[0,0.5],[1,0.5]];portConstraint=eastwest;top=0;left=0;right=0;bottom=1;" parent="u9Eh5dhA7W8m4JbEo9Z5-116" vertex="1"><mxGeometry y="30" width="215" height="30" as="geometry"/></mxCell><mxCell id="u9Eh5dhA7W8m4JbEo9Z5-118" value="PK" style="shape=partialRectangle;overflow=hidden;connectable=0;fillColor=none;top=0;left=0;bottom=0;right=0;fontStyle=1;" parent="u9Eh5dhA7W8m4JbEo9Z5-117" vertex="1"><mxGeometry width="30" height="30" as="geometry"><mxRectangle width="30" height="30" as="alternateBounds"/></mxGeometry></mxCell><mxCell id="u9Eh5dhA7W8m4JbEo9Z5-119" value="model_id int NOT NULL " style="shape=partialRectangle;overflow=hidden;connectable=0;fillColor=none;top=0;left=0;bottom=0;right=0;align=left;spacingLeft=6;fontStyle=5;" parent="u9Eh5dhA7W8m4JbEo9Z5-117" vertex="1"><mxGeometry x="30" width="185" height="30" as="geometry"><mxRectangle width="185" height="30" as="alternateBounds"/></mxGeometry></mxCell><mxCell id="u9Eh5dhA7W8m4JbEo9Z5-123" value="" style="shape=partialRectangle;collapsible=0;dropTarget=0;pointerEvents=0;fillColor=none;points=[[0,0.5],[1,0.5]];portConstraint=eastwest;top=0;left=0;right=0;bottom=0;" parent="u9Eh5dhA7W8m4JbEo9Z5-116" vertex="1"><mxGeometry y="60" width="215" height="30" as="geometry"/></mxCell><mxCell id="u9Eh5dhA7W8m4JbEo9Z5-124" value="FK" style="shape=partialRectangle;overflow=hidden;connectable=0;fillColor=none;top=0;left=0;bottom=0;right=0;" parent="u9Eh5dhA7W8m4JbEo9Z5-123" vertex="1"><mxGeometry width="30" height="30" as="geometry"><mxRectangle width="30" height="30" as="alternateBounds"/></mxGeometry></mxCell><mxCell id="u9Eh5dhA7W8m4JbEo9Z5-125" value="manufacturer_id char NOT NULL" style="shape=partialRectangle;overflow=hidden;connectable=0;fillColor=none;top=0;left=0;bottom=0;right=0;align=left;spacingLeft=6;" parent="u9Eh5dhA7W8m4JbEo9Z5-123" vertex="1"><mxGeometry x="30" width="185" height="30" as="geometry"><mxRectangle width="185" height="30" as="alternateBounds"/></mxGeometry></mxCell><mxCell id="u9Eh5dhA7W8m4JbEo9Z5-136" value="" style="shape=partialRectangle;collapsible=0;dropTarget=0;pointerEvents=0;fillColor=none;points=[[0,0.5],[1,0.5]];portConstraint=eastwest;top=0;left=0;right=0;bottom=0;" parent="u9Eh5dhA7W8m4JbEo9Z5-116" vertex="1"><mxGeometry y="90" width="215" height="30" as="geometry"/></mxCell><mxCell id="u9Eh5dhA7W8m4JbEo9Z5-137" value="" style="shape=partialRectangle;overflow=hidden;connectable=0;fillColor=none;top=0;left=0;bottom=0;right=0;" parent="u9Eh5dhA7W8m4JbEo9Z5-136" vertex="1"><mxGeometry width="30" height="30" as="geometry"><mxRectangle width="30" height="30" as="alternateBounds"/></mxGeometry></mxCell><mxCell id="u9Eh5dhA7W8m4JbEo9Z5-138" value="name char NOT NULL" style="shape=partialRectangle;overflow=hidden;connectable=0;fillColor=none;top=0;left=0;bottom=0;right=0;align=left;spacingLeft=6;" parent="u9Eh5dhA7W8m4JbEo9Z5-136" vertex="1"><mxGeometry x="30" width="185" height="30" as="geometry"><mxRectangle width="185" height="30" as="alternateBounds"/></mxGeometry></mxCell><mxCell id="u9Eh5dhA7W8m4JbEo9Z5-126" value="Manufacturer" style="shape=table;startSize=30;container=1;collapsible=1;childLayout=tableLayout;fixedRows=1;rowLines=0;fontStyle=1;align=center;resizeLast=1;" parent="1" vertex="1"><mxGeometry x="30" y="-1020" width="220" height="90" as="geometry"/></mxCell><mxCell id="u9Eh5dhA7W8m4JbEo9Z5-127" value="" style="shape=partialRectangle;collapsible=0;dropTarget=0;pointerEvents=0;fillColor=none;points=[[0,0.5],[1,0.5]];portConstraint=eastwest;top=0;left=0;right=0;bottom=1;" parent="u9Eh5dhA7W8m4JbEo9Z5-126" vertex="1"><mxGeometry y="30" width="220" height="30" as="geometry"/></mxCell><mxCell id="u9Eh5dhA7W8m4JbEo9Z5-128" value="PK" style="shape=partialRectangle;overflow=hidden;connectable=0;fillColor=none;top=0;left=0;bottom=0;right=0;fontStyle=1;" parent="u9Eh5dhA7W8m4JbEo9Z5-127" vertex="1"><mxGeometry width="30" height="30" as="geometry"><mxRectangle width="30" height="30" as="alternateBounds"/></mxGeometry></mxCell><mxCell id="u9Eh5dhA7W8m4JbEo9Z5-129" value="manufacturer_id int NOT NULL " style="shape=partialRectangle;overflow=hidden;connectable=0;fillColor=none;top=0;left=0;bottom=0;right=0;align=left;spacingLeft=6;fontStyle=5;" parent="u9Eh5dhA7W8m4JbEo9Z5-127" vertex="1"><mxGeometry x="30" width="190" height="30" as="geometry"><mxRectangle width="190" height="30" as="alternateBounds"/></mxGeometry></mxCell><mxCell id="u9Eh5dhA7W8m4JbEo9Z5-133" value="" style="shape=partialRectangle;collapsible=0;dropTarget=0;pointerEvents=0;fillColor=none;points=[[0,0.5],[1,0.5]];portConstraint=eastwest;top=0;left=0;right=0;bottom=0;" parent="u9Eh5dhA7W8m4JbEo9Z5-126" vertex="1"><mxGeometry y="60" width="220" height="30" as="geometry"/></mxCell><mxCell id="u9Eh5dhA7W8m4JbEo9Z5-134" value="" style="shape=partialRectangle;overflow=hidden;connectable=0;fillColor=none;top=0;left=0;bottom=0;right=0;" parent="u9Eh5dhA7W8m4JbEo9Z5-133" vertex="1"><mxGeometry width="30" height="30" as="geometry"><mxRectangle width="30" height="30" as="alternateBounds"/></mxGeometry></mxCell><mxCell id="u9Eh5dhA7W8m4JbEo9Z5-135" value="name char NOT NULL" style="shape=partialRectangle;overflow=hidden;connectable=0;fillColor=none;top=0;left=0;bottom=0;right=0;align=left;spacingLeft=6;" parent="u9Eh5dhA7W8m4JbEo9Z5-133" vertex="1"><mxGeometry x="30" width="190" height="30" as="geometry"><mxRectangle width="190" height="30" as="alternateBounds"/></mxGeometry></mxCell><mxCell id="u9Eh5dhA7W8m4JbEo9Z5-143" value="" style="edgeStyle=entityRelationEdgeStyle;fontSize=12;html=1;endArrow=ERmandOne;startArrow=ERoneToMany;rounded=0;endFill=0;startFill=0;" parent="1" source="u9Eh5dhA7W8m4JbEo9Z5-99" target="u9Eh5dhA7W8m4JbEo9Z5-103" edge="1"><mxGeometry width="100" height="100" relative="1" as="geometry"><mxPoint x="740" y="70" as="sourcePoint"/><mxPoint x="840" y="-30" as="targetPoint"/></mxGeometry></mxCell><mxCell id="qmTu2WldADUxEgEubURQ-2" value="" style="edgeStyle=entityRelationEdgeStyle;fontSize=12;html=1;endArrow=ERzeroToMany;startArrow=ERmandOne;rounded=0;endFill=1;" parent="1" source="u9Eh5dhA7W8m4JbEo9Z5-127" target="u9Eh5dhA7W8m4JbEo9Z5-123" edge="1"><mxGeometry width="100" height="100" relative="1" as="geometry"><mxPoint x="320" y="-770" as="sourcePoint"/><mxPoint x="420" y="-870" as="targetPoint"/></mxGeometry></mxCell><mxCell id="qmTu2WldADUxEgEubURQ-5" value="" style="edgeStyle=entityRelationEdgeStyle;fontSize=12;html=1;endArrow=ERmandOne;startArrow=ERoneToMany;rounded=0;endFill=0;startFill=0;" parent="1" source="u9Eh5dhA7W8m4JbEo9Z5-86" target="C-vyLk0tnHw3VtMMgP7b-14" edge="1"><mxGeometry width="100" height="100" relative="1" as="geometry"><mxPoint x="330" y="-900" as="sourcePoint"/><mxPoint x="1090" y="-660" as="targetPoint"/></mxGeometry></mxCell><mxCell id="qmTu2WldADUxEgEubURQ-6" value="" style="edgeStyle=entityRelationEdgeStyle;fontSize=12;html=1;endArrow=ERzeroToMany;startArrow=ERmandOne;rounded=0;endFill=1;" parent="1" source="u9Eh5dhA7W8m4JbEo9Z5-15" target="u9Eh5dhA7W8m4JbEo9Z5-47" edge="1"><mxGeometry width="100" height="100" relative="1" as="geometry"><mxPoint x="760" y="-1075" as="sourcePoint"/><mxPoint x="760" y="-735.0000000000002" as="targetPoint"/></mxGeometry></mxCell><mxCell id="qmTu2WldADUxEgEubURQ-7" value="" style="edgeStyle=entityRelationEdgeStyle;fontSize=12;html=1;endArrow=ERzeroToMany;startArrow=ERmandOne;rounded=0;endFill=1;" parent="1" source="C-vyLk0tnHw3VtMMgP7b-23" target="C-vyLk0tnHw3VtMMgP7b-6" edge="1"><mxGeometry width="100" height="100" relative="1" as="geometry"><mxPoint x="665" y="-500.59000000000026" as="sourcePoint"/><mxPoint x="320" y="-890" as="targetPoint"/></mxGeometry></mxCell><mxCell id="qmTu2WldADUxEgEubURQ-8" value="" style="edgeStyle=entityRelationEdgeStyle;fontSize=12;html=1;endArrow=ERoneToMany;startArrow=ERmandOne;rounded=0;endFill=0;" parent="1" source="u9Eh5dhA7W8m4JbEo9Z5-70" target="u9Eh5dhA7W8m4JbEo9Z5-5" edge="1"><mxGeometry width="100" height="100" relative="1" as="geometry"><mxPoint x="595" y="-520.0000000000002" as="sourcePoint"/><mxPoint x="375" y="-520.0000000000002" as="targetPoint"/></mxGeometry></mxCell><mxCell id="rGewCuBPk5stgKeeJWX4-1" value="" style="edgeStyle=entityRelationEdgeStyle;fontSize=12;html=1;endArrow=ERzeroToMany;startArrow=ERmandOne;rounded=0;endFill=1;" parent="1" source="u9Eh5dhA7W8m4JbEo9Z5-117" target="C-vyLk0tnHw3VtMMgP7b-20" edge="1"><mxGeometry width="100" height="100" relative="1" as="geometry"><mxPoint x="490" y="-1070" as="sourcePoint"/><mxPoint x="330" y="-900" as="targetPoint"/></mxGeometry></mxCell></root></mxGraphModel></diagram></mxfile>